<?xml version="1.0" encoding="UTF-8" standalone="no"?>
<!-- Created with Inkscape (http://www.inkscape.org/) -->

<svg
   xmlns:dc="http://purl.org/dc/elements/1.1/"
   xmlns:cc="http://creativecommons.org/ns#"
   xmlns:rdf="http://www.w3.org/1999/02/22-rdf-syntax-ns#"
   xmlns:svg="http://www.w3.org/2000/svg"
   xmlns="http://www.w3.org/2000/svg"
   xmlns:sodipodi="http://sodipodi.sourceforge.net/DTD/sodipodi-0.dtd"
   xmlns:inkscape="http://www.inkscape.org/namespaces/inkscape"
   width="1024"
   height="1024"
   viewBox="0 0 1024 1024"
   id="svg2"
   version="1.1"
   inkscape:version="0.91 r13725"
   sodipodi:docname="dornytech.svg"
   inkscape:export-filename="C:\Users\Michal\Workspace\Dornysoft\Logo\Dornytech.png"
   inkscape:export-xdpi="90"
   inkscape:export-ydpi="90">
  <title
     id="title4195">©Dornytech</title>
  <defs
     id="defs4" />
  <sodipodi:namedview
     id="base"
     pagecolor="#ffffff"
     bordercolor="#666666"
     borderopacity="1.0"
     inkscape:pageopacity="0.0"
     inkscape:pageshadow="2"
     inkscape:zoom="0.70710678"
     inkscape:cx="11.292057"
     inkscape:cy="468.48117"
     inkscape:document-units="px"
     inkscape:current-layer="layer1"
     showgrid="false"
     units="px"
     inkscape:window-width="1920"
     inkscape:window-height="1017"
     inkscape:window-x="-8"
     inkscape:window-y="-8"
     inkscape:window-maximized="1"
     fit-margin-top="0"
     fit-margin-left="0"
     fit-margin-right="0"
     fit-margin-bottom="0" />
  <metadata
     id="metadata7">
    <rdf:RDF>
      <cc:Work
         rdf:about="">
        <dc:format>image/svg+xml</dc:format>
        <dc:type
           rdf:resource="http://purl.org/dc/dcmitype/StillImage" />
        <dc:title>©Dornytech</dc:title>
        <dc:creator>
          <cc:Agent>
            <dc:title>Michal Dorner</dc:title>
          </cc:Agent>
        </dc:creator>
        <dc:rights>
          <cc:Agent>
            <dc:title>©Dornytech</dc:title>
          </cc:Agent>
        </dc:rights>
      </cc:Work>
    </rdf:RDF>
  </metadata>
  <g
     inkscape:label="Layer 1"
     inkscape:groupmode="layer"
     id="layer1"
     transform="translate(30.004883,-14.382313)">
    <path
       inkscape:connector-curvature="0"
       style="fill:#a1cc3a;fill-opacity:1;fill-rule:evenodd;stroke:none;stroke-width:0.97153324px;stroke-linecap:butt;stroke-linejoin:miter;stroke-opacity:1"
       d="M 481.99512,185.43708 A 249.51424,249.51424 0 0 0 232.48145,434.95075 249.51424,249.51424 0 0 0 481.99512,684.46638 249.51424,249.51424 0 0 0 731.50879,434.95075 249.51424,249.51424 0 0 0 671.77832,273.07575 l 0,155.76172 a 190,190 0 0 1 0.2168,6.11328 190,190 0 0 1 -190,190 190,190 0 0 1 -190,-190 190,190 0 0 1 190,-190 190,190 0 0 1 115.72656,39.60547 l 0,-70.51172 A 249.51424,249.51424 0 0 0 481.99512,185.43708 Z"
       id="outer-circle" />
    <path
       inkscape:connector-curvature="0"
       style="fill:#666363;fill-opacity:1;stroke:none"
       d="m 596.99512,434.95171 a 115,115 0 0 1 -115,115 115,115 0 0 1 -115,-115 115,115 0 0 1 115,-115 115,115 0 0 1 115,115 z"
       id="grey-circle" />
    <g
       style="font-style:normal;font-weight:normal;font-size:180px;line-height:125%;font-family:sans-serif;letter-spacing:0px;word-spacing:0px;fill:#666363;fill-opacity:1;stroke:none;stroke-width:1px;stroke-linecap:butt;stroke-linejoin:miter;stroke-opacity:1"
       id="text4147">
      <path
         d="m 92.331445,822.32758 q 0,12.6 -3,21.15 -3,8.55 -8.25,13.95 -5.25,5.25 -12.75,7.65 -7.35,2.25 -16.05,2.25 l -57.9000001,0 0,-89.4 57.0000001,0 q 20.85,0 30.9,11.85 10.05,11.7 10.05,32.55 z m -21.3,0 q 0,-7.65 -1.8,-12.6 -1.8,-5.1 -5.1,-7.95 -3.15,-3 -7.8,-4.05 -4.65,-1.2 -10.2,-1.2 l -30.45,0 0,54 30.45,0 q 6.9,0 11.7,-1.2 4.8,-1.35 7.65,-4.5 3,-3.15 4.2,-8.55 1.35,-5.55 1.35,-13.95 z"
         style="font-style:normal;font-variant:normal;font-weight:normal;font-stretch:normal;font-size:150px;font-family:'Federal Service';-inkscape-font-specification:'Federal Service';fill:#666363;fill-opacity:1"
         id="path4177" />
      <path
         d="m 205.98223,836.87758 0,-29.55 q 0,-7.5 -2.4,-13.05 -2.25,-5.7 -7.8,-9.3 -5.55,-3.75 -14.85,-5.55 -9.3,-1.8 -23.4,-1.8 -13.8,0 -23.1,2.1 -9.3,1.95 -15,5.85 -5.55,3.75 -8.1,9.45 -2.4,5.55 -2.4,12.75 l 0,29.55 q 0,7.05 2.25,12.75 2.4,5.55 7.8,9.45 5.55,3.75 14.7,5.85 9.15,1.95 22.8,1.95 14.1,0 23.55,-1.8 9.6,-1.95 15.3,-5.7 5.85,-3.9 8.25,-9.6 2.4,-5.7 2.4,-13.35 z m -48.45,-41.55 q 8.85,0 14.1,1.35 5.4,1.2 8.25,3.45 2.85,2.1 3.75,5.1 0.9,3 0.9,6.3 l 0,20.1 q 0,5.1 -1.05,8.55 -1.05,3.45 -4.2,5.55 -3,2.1 -8.55,3 -5.4,0.9 -14.25,0.9 -7.8,0 -13.05,-1.2 -5.1,-1.2 -8.25,-3.45 -3,-2.25 -4.35,-5.4 -1.2,-3.3 -1.2,-7.2 l 0,-20.85 q 0,-7.5 6.3,-11.85 6.3,-4.35 21.6,-4.35 z"
         style="font-style:normal;font-variant:normal;font-weight:normal;font-stretch:normal;font-size:150px;font-family:'Federal Service';-inkscape-font-specification:'Federal Service';fill:#666363;fill-opacity:1"
         id="path4179" />
      <path
         d="m 244.2041,867.32758 -21.6,0 0,-89.4 61.5,0 q 6.9,0 12.9,2.85 6,2.85 10.5,8.85 4.8,5.7 7.05,12 2.25,6.3 2.25,13.05 l -0.15,0.15 0.3,0 q 0,6.75 -2.25,13.05 -2.1,6.3 -6.9,12.15 -4.95,5.85 -10.95,8.85 l 13.95,18.45 -23.4,0 -11.7,-15.75 -31.5,0 0,15.75 z m 30.75,-33.6 q 5.55,0 9.15,-1.05 3.75,-1.2 6,-3.45 2.25,-2.25 3.3,-5.7 1.2,-3.45 1.65,-8.25 -0.3,-3.6 -1.35,-7.05 -1.05,-3.6 -3.3,-6.3 -2.25,-2.85 -6,-4.5 -3.75,-1.65 -9.6,-1.65 l -30.6,0 0,37.95 30.75,0 z"
         style="font-style:normal;font-variant:normal;font-weight:normal;font-stretch:normal;font-size:150px;font-family:'Federal Service';-inkscape-font-specification:'Federal Service';fill:#666363;fill-opacity:1"
         id="path4181" />
      <path
         d="m 427.54629,867.32758 -20.85,0 0,-49.65 q 0,-4.35 -0.9,-8.25 -0.75,-4.05 -3.15,-7.05 -2.25,-3 -6.45,-4.8 -4.05,-1.8 -10.65,-1.8 l -30.6,0 0,71.55 -21.6,0 0,-89.4 61.5,0 q 6.9,0 12.9,2.85 6,2.85 10.5,8.85 4.8,5.7 7.05,12 2.25,6.3 2.25,13.05 l 0,52.65 z"
         style="font-style:normal;font-variant:normal;font-weight:normal;font-stretch:normal;font-size:150px;font-family:'Federal Service';-inkscape-font-specification:'Federal Service';fill:#666363;fill-opacity:1"
         id="path4183" />
      <path
         d="m 541.88848,777.92758 -22.05,0 0,35.1 -41.4,0 q -6.3,-0.6 -9.3,-3.75 -3,-3.3 -3.15,-8.7 l 0,-22.8 -21.9,0 0,15.45 q 0,9.3 1.5,16.35 1.5,6.9 5.25,11.85 3.75,4.8 10.05,7.35 6.3,2.55 15.75,2.85 l 43.35,0 q -1.8,9.9 -8.25,13.5 -6.45,3.6 -15.9,3.6 l -29.85,0 0,18.6 35.1,0 q 20.85,0 30.9,-11.7 10.05,-11.85 10.05,-32.7 l -0.15,-45 z"
         style="font-style:normal;font-variant:normal;font-weight:normal;font-stretch:normal;font-size:150px;font-family:'Federal Service';-inkscape-font-specification:'Federal Service';fill:#666363;fill-opacity:1"
         id="path4185" />
      <path
         d="m 646.23926,795.77758 -33.75,0 0,71.55 -21,0 0,-71.55 -32.85,0 0,-17.85 87.6,0 0,17.85 z"
         style="font-style:normal;font-variant:normal;font-weight:normal;font-stretch:normal;font-size:150px;font-family:'Federal Service';-inkscape-font-specification:'Federal Service';fill:#666363;fill-opacity:1"
         id="path4187" />
      <path
         d="m 751.14316,867.32758 0,-18.15 -47.4,0 q -9.9,0 -14.7,-4.65 -4.8,-4.65 -4.8,-13.2 l 54,0 0,-17.85 -54,0 q 0,-3.75 0.9,-6.9 0.9,-3.3 3.15,-5.7 2.25,-2.4 6,-3.75 3.75,-1.35 9.45,-1.35 l 47.4,0 0,-17.85 -55.8,0 q -16.8,0 -24.75,11.85 -7.95,11.7 -7.95,32.55 0,10.65 1.8,19.05 1.8,8.25 5.85,14.1 4.05,5.7 10.5,8.85 6.6,3 16.05,3 l 54.3,0 z"
         style="font-style:normal;font-variant:normal;font-weight:normal;font-stretch:normal;font-size:150px;font-family:'Federal Service';-inkscape-font-specification:'Federal Service';fill:#666363;fill-opacity:1"
         id="path4189" />
      <path
         d="m 856.02598,867.32758 -54.3,0 q -9.45,0 -16.05,-3 -6.45,-3.15 -10.5,-8.85 -4.05,-5.85 -5.85,-14.1 -1.8,-8.4 -1.8,-19.05 0,-20.85 7.95,-32.55 7.95,-11.85 24.75,-11.85 l 55.8,0 0,17.85 -47.4,0 q -5.7,0 -9.45,1.35 -3.75,1.35 -6,3.75 -2.25,2.4 -3.15,5.7 -0.9,3.3 -0.9,7.05 l 0,18.45 q 0,17.1 19.5,17.1 l 47.4,0 0,18.15 z"
         style="font-style:normal;font-variant:normal;font-weight:normal;font-stretch:normal;font-size:150px;font-family:'Federal Service';-inkscape-font-specification:'Federal Service';fill:#666363;fill-opacity:1"
         id="path4191" />
      <path
         d="m 969.60879,867.32758 -20.85,0 0,-35.25 -54.75,0 0,35.25 -21.6,0 0,-89.4 21.6,0 0,35.7 54.75,0 0,-35.7 20.85,0 0,89.4 z"
         style="font-style:normal;font-variant:normal;font-weight:normal;font-stretch:normal;font-size:150px;font-family:'Federal Service';-inkscape-font-specification:'Federal Service';fill:#666363;fill-opacity:1"
         id="path4193" />
    </g>
  </g>
</svg>
