<?xml version="1.0" encoding="UTF-8" standalone="no"?>
<!-- Created with Inkscape (http://www.inkscape.org/) -->

<svg
   xmlns:dc="http://purl.org/dc/elements/1.1/"
   xmlns:cc="http://creativecommons.org/ns#"
   xmlns:rdf="http://www.w3.org/1999/02/22-rdf-syntax-ns#"
   xmlns:svg="http://www.w3.org/2000/svg"
   xmlns="http://www.w3.org/2000/svg"
   xmlns:sodipodi="http://sodipodi.sourceforge.net/DTD/sodipodi-0.dtd"
   xmlns:inkscape="http://www.inkscape.org/namespaces/inkscape"
   width="1024"
   height="1024"
   viewBox="0 0 1024 1024"
   id="svg2"
   version="1.1"
   inkscape:version="0.91 r13725"
   sodipodi:docname="Dornysoft.svg"
   inkscape:export-filename="C:\Users\Michal\Workspace\Dornysoft\Logo\Dornysoft.png"
   inkscape:export-xdpi="90"
   inkscape:export-ydpi="90">
  <title
     id="title4151">Dornysoft</title>
  <defs
     id="defs4" />
  <sodipodi:namedview
     id="base"
     pagecolor="#ffffff"
     bordercolor="#666666"
     borderopacity="1.0"
     inkscape:pageopacity="0.0"
     inkscape:pageshadow="2"
     inkscape:zoom="0.70710678"
     inkscape:cx="25.722047"
     inkscape:cy="479.79488"
     inkscape:document-units="px"
     inkscape:current-layer="layer1"
     showgrid="false"
     units="px"
     inkscape:window-width="1920"
     inkscape:window-height="1017"
     inkscape:window-x="-8"
     inkscape:window-y="-8"
     inkscape:window-maximized="1"
     fit-margin-top="0"
     fit-margin-left="0"
     fit-margin-right="0"
     fit-margin-bottom="0" />
  <metadata
     id="metadata7">
    <rdf:RDF>
      <cc:Work
         rdf:about="">
        <dc:format>image/svg+xml</dc:format>
        <dc:type
           rdf:resource="http://purl.org/dc/dcmitype/StillImage" />
        <dc:title>Dornysoft</dc:title>
        <dc:creator>
          <cc:Agent>
            <dc:title>Michal Dorner</dc:title>
          </cc:Agent>
        </dc:creator>
        <dc:rights>
          <cc:Agent>
            <dc:title>©Dornysof</dc:title>
          </cc:Agent>
        </dc:rights>
      </cc:Work>
    </rdf:RDF>
  </metadata>
  <g
     inkscape:label="Layer 1"
     inkscape:groupmode="layer"
     id="layer1"
     transform="translate(30.004883,-14.382313)">
    <path
       inkscape:connector-curvature="0"
       style="fill:#a1cc3a;fill-opacity:1;fill-rule:evenodd;stroke:none;stroke-width:0.97153324px;stroke-linecap:butt;stroke-linejoin:miter;stroke-opacity:1"
       d="M 481.99512,185.12937 A 249.51424,249.51424 0 0 0 232.48145,434.64304 249.51424,249.51424 0 0 0 481.99512,684.15867 249.51424,249.51424 0 0 0 731.50879,434.64304 249.51424,249.51424 0 0 0 671.77832,272.76804 l 0,155.76172 a 190,190 0 0 1 0.2168,6.11328 190,190 0 0 1 -190,190 190,190 0 0 1 -190,-190 190,190 0 0 1 190,-190 190,190 0 0 1 115.72656,39.60547 l 0,-70.51172 A 249.51424,249.51424 0 0 0 481.99512,185.12937 Z"
       id="outer-circle" />
    <path
       inkscape:connector-curvature="0"
       style="fill:#666363;fill-opacity:1;stroke:none"
       d="m 596.99512,434.644 a 115,115 0 0 1 -115,115 115,115 0 0 1 -115,-115 115,115 0 0 1 115,-115 115,115 0 0 1 115,115 z"
       id="grey-circle" />
    <g
       transform="scale(0.94233663,1.0611919)"
       style="font-style:normal;font-variant:normal;font-weight:normal;font-stretch:normal;font-size:159.17878723px;line-height:125%;font-family:'Federal Service';-inkscape-font-specification:'Federal Service';letter-spacing:0px;word-spacing:0px;fill:#666363;fill-opacity:1;stroke:none;stroke-width:1px;stroke-linecap:butt;stroke-linejoin:miter;stroke-opacity:1"
       id="text4146">
      <path
         d="m 92.815527,769.85086 q 0,13.37101 -3.183576,22.44421 -3.183576,9.07319 -8.754833,14.80362 -5.571258,5.57126 -13.530197,8.11812 -7.799761,2.38768 -17.032131,2.38768 l -61.443011,0 0,-94.87056 60.487939,0 q 22.125851,0 32.79083,12.57513 10.664979,12.41594 10.664979,34.5418 z m -22.603388,0 q 0,-8.11812 -1.910146,-13.37102 -1.910145,-5.41208 -5.412078,-8.43648 -3.342755,-3.18357 -8.277297,-4.29783 -4.934543,-1.27343 -10.824158,-1.27343 l -32.313294,0 0,57.30437 32.313294,0 q 7.322224,0 12.415946,-1.27343 5.093721,-1.43261 8.118118,-4.77537 3.183575,-3.34275 4.457006,-9.07319 1.432609,-5.88961 1.432609,-14.80362 z"
         style=""
         id="path4237" />
      <path
         d="m 213.42082,785.2912 0,-31.35822 q 0,-7.95894 -2.54686,-13.84856 -2.38768,-6.04879 -8.2773,-9.86908 -5.88961,-3.97947 -15.7587,-5.88962 -9.86908,-1.91014 -24.83189,-1.91014 -14.64445,0 -24.51353,2.2285 -9.86909,2.06932 -15.91788,6.20797 -5.88962,3.97947 -8.59566,10.02827 -2.54686,5.88961 -2.54686,13.53019 l 0,31.35822 q 0,7.48141 2.38768,13.5302 2.54686,5.88962 8.2773,10.02827 5.88962,3.97946 15.59952,6.20797 9.70991,2.06932 24.19518,2.06932 14.9628,0 24.99107,-1.91014 10.18744,-2.06933 16.23623,-6.0488 6.20798,-4.13865 8.75484,-10.18744 2.54686,-6.04879 2.54686,-14.16691 z m -51.41475,-44.09253 q 9.39155,0 14.96281,1.43261 5.73043,1.27343 8.75483,3.66112 3.0244,2.2285 3.97947,5.41207 0.95507,3.18358 0.95507,6.68551 l 0,21.32996 q 0,5.41208 -1.11425,9.07319 -1.11425,3.66111 -4.45701,5.88962 -3.18357,2.2285 -9.07319,3.18357 -5.73043,0.95508 -15.12198,0.95508 -8.2773,0 -13.84856,-1.27344 -5.41208,-1.27343 -8.75483,-3.66111 -3.18358,-2.38768 -4.61618,-5.73043 -1.27344,-3.50194 -1.27344,-7.64059 l 0,-22.12585 q 0,-7.95894 6.68551,-12.57512 6.68551,-4.61619 22.92175,-4.61619 z"
         style=""
         id="path4239" />
      <path
         d="m 253.98157,817.60449 -22.92174,0 0,-94.87056 65.2633,0 q 7.32222,0 13.68938,3.0244 6.36715,3.0244 11.14251,9.39155 5.09372,6.04879 7.4814,12.7343 2.38769,6.68551 2.38769,13.84856 l -0.15918,0.15918 0.31836,0 q 0,7.16304 -2.38769,13.84855 -2.2285,6.68551 -7.32222,12.89348 -5.2529,6.20798 -11.62005,9.39155 l 14.80362,19.57899 -24.83189,0 -12.41594,-16.71377 -33.42755,0 0,16.71377 z m 32.63165,-35.65605 q 5.88962,0 9.70991,-1.11425 3.97947,-1.27343 6.36715,-3.66111 2.38768,-2.38768 3.50194,-6.04879 1.27343,-3.66112 1.75096,-8.75484 -0.31836,-3.82029 -1.43261,-7.4814 -1.11425,-3.82029 -3.50193,-6.68551 -2.38768,-3.0244 -6.36715,-4.77536 -3.97947,-1.75097 -10.18744,-1.75097 l -32.47248,0 0,40.27223 32.63165,0 z"
         style=""
         id="path4241" />
      <path
         d="m 448.54281,817.60449 -22.12585,0 0,-52.68818 q 0,-4.61618 -0.95507,-8.75483 -0.79589,-4.29783 -3.34276,-7.4814 -2.38768,-3.18358 -6.84468,-5.09372 -4.29783,-1.91015 -11.3017,-1.91015 l -32.47247,0 0,75.92828 -22.92174,0 0,-94.87056 65.2633,0 q 7.32222,0 13.68937,3.0244 6.36716,3.0244 11.14252,9.39155 5.09372,6.04879 7.4814,12.7343 2.38768,6.68551 2.38768,13.84856 l 0,55.87175 z"
         style=""
         id="path4243" />
      <path
         d="m 569.88181,722.73393 -23.39928,0 0,37.24784 -43.93335,0 q -6.6855,-0.63671 -9.86908,-3.97947 -3.18358,-3.50193 -3.34275,-9.23237 l 0,-24.19517 -23.24011,0 0,16.39541 q 0,9.86909 1.59179,17.35049 1.59179,7.32222 5.57126,12.57512 3.97947,5.09372 10.66498,7.79976 6.68551,2.70604 16.71377,3.0244 l 46.00267,0 q -1.91015,10.5058 -8.75483,14.32609 -6.84469,3.82029 -16.87296,3.82029 l -31.67657,0 0,19.73817 37.24783,0 q 22.12585,0 32.79083,-12.41594 10.66498,-12.57513 10.66498,-34.70098 l -0.15918,-47.75364 z"
         style=""
         id="path4245" />
      <path
         d="m 636.68467,742.4721 31.03987,0 0,-19.73817 -36.61112,0 q -22.12586,0 -32.79084,12.57513 -10.66497,12.41594 -10.66497,34.5418 l 0,9.39154 80.54446,0 q -1.91014,10.5058 -8.75483,14.64445 -6.84469,3.97947 -16.87295,3.97947 l -54.75751,0 0,19.73817 60.32877,0 q 22.12585,0 32.79083,-12.41594 10.66497,-12.57513 10.66497,-34.70098 l 0,-10.34662 -80.54446,0 q 2.06932,-10.18744 8.75483,-13.84855 6.84469,-3.8203 16.87295,-3.8203 z"
         style=""
         id="path4247" />
      <path
         d="m 812.20665,785.2912 0,-31.35822 q 0,-7.95894 -2.54687,-13.84856 -2.38768,-6.04879 -8.27729,-9.86908 -5.88962,-3.97947 -15.7587,-5.88962 -9.86909,-1.91014 -24.83189,-1.91014 -14.64445,0 -24.51354,2.2285 -9.86908,2.06932 -15.91787,6.20797 -5.88962,3.97947 -8.59566,10.02827 -2.54686,5.88961 -2.54686,13.53019 l 0,31.35822 q 0,7.48141 2.38768,13.5302 2.54686,5.88962 8.2773,10.02827 5.88961,3.97946 15.59952,6.20797 9.70991,2.06932 24.19518,2.06932 14.9628,0 24.99107,-1.91014 10.18744,-2.06933 16.23623,-6.0488 6.20797,-4.13865 8.75483,-10.18744 2.54687,-6.04879 2.54687,-14.16691 z M 760.7919,741.19867 q 9.39155,0 14.9628,1.43261 5.73044,1.27343 8.75484,3.66112 3.02439,2.2285 3.97947,5.41207 0.95507,3.18358 0.95507,6.68551 l 0,21.32996 q 0,5.41208 -1.11425,9.07319 -1.11425,3.66111 -4.45701,5.88962 -3.18357,2.2285 -9.07319,3.18357 -5.73044,0.95508 -15.12198,0.95508 -8.2773,0 -13.84856,-1.27344 -5.41208,-1.27343 -8.75483,-3.66111 -3.18358,-2.38768 -4.61619,-5.73043 -1.27343,-3.50194 -1.27343,-7.64059 l 0,-22.12585 q 0,-7.95894 6.68551,-12.57512 6.68551,-4.61619 22.92175,-4.61619 z"
         style=""
         id="path4249" />
      <path
         d="m 852.7674,817.60449 0,-38.04373 57.30436,0 0,-19.10145 -57.30436,0 q 0,-3.97947 0.95507,-7.32223 0.95508,-3.50193 3.34276,-6.04879 2.38768,-2.54686 6.36715,-3.97947 3.97947,-1.43261 10.02826,-1.43261 l 50.3005,0 0,-18.94228 -59.21451,0 q -17.82802,0 -26.2645,12.57513 -8.43647,12.41594 -8.43647,34.5418 l 0,47.75363 22.92174,0 z"
         style=""
         id="path4251" />
      <path
         d="m 1034.1068,741.67621 -35.81518,0 0,75.92828 -22.28503,0 0,-75.92828 -34.86015,0 0,-18.94228 92.96036,0 0,18.94228 z"
         style=""
         id="path4253" />
    </g>
  </g>
</svg>
